<svg width="800" height="500" viewBox="0 0 800 500" fill="none" xmlns="http://www.w3.org/2000/svg">
  <!-- Main dashboard background -->
  <rect width="800" height="500" rx="15" fill="#1a1d29"/>
  
  <!-- Header/Navigation -->
  <rect x="0" y="0" width="800" height="60" rx="15" fill="#2d3748"/>
  <text x="20" y="35" fill="#ffffff" font-size="18" font-weight="bold" font-family="Arial, sans-serif">myInstructor 2.0</text>
  <circle cx="750" cy="30" r="15" fill="#4a5568"/>
  <text x="744" y="35" fill="#ffffff" font-size="12" font-family="Arial, sans-serif">A</text>
  
  <!-- Sidebar -->
  <rect x="0" y="60" width="200" height="440" fill="#2d3748"/>
  
  <!-- Sidebar menu items -->
  <rect x="10" y="80" width="180" height="40" rx="8" fill="#4a5568"/>
  <text x="25" y="102" fill="#ffffff" font-size="14" font-family="Arial, sans-serif">📊 Dashboard</text>
  
  <rect x="10" y="130" width="180" height="40" rx="8" fill="rgba(255,255,255,0.1)"/>
  <text x="25" y="152" fill="#a0aec0" font-size="14" font-family="Arial, sans-serif">👥 Students</text>
  
  <rect x="10" y="180" width="180" height="40" rx="8" fill="rgba(255,255,255,0.1)"/>
  <text x="25" y="202" fill="#a0aec0" font-size="14" font-family="Arial, sans-serif">📅 Lessons</text>
  
  <rect x="10" y="230" width="180" height="40" rx="8" fill="rgba(255,255,255,0.1)"/>
  <text x="25" y="252" fill="#a0aec0" font-size="14" font-family="Arial, sans-serif">💬 WhatsApp</text>
  
  <!-- Main content area -->
  <rect x="220" y="80" width="560" height="400" fill="#1a1d29"/>
  
  <!-- Stats cards -->
  <rect x="240" y="100" width="160" height="100" rx="10" fill="#2d3748" stroke="rgba(255,255,255,0.1)"/>
  <text x="250" y="125" fill="#a0aec0" font-size="12" font-family="Arial, sans-serif">Total Students</text>
  <text x="250" y="150" fill="#ffffff" font-size="28" font-weight="bold" font-family="Arial, sans-serif">156</text>
  <text x="250" y="175" fill="#48bb78" font-size="12" font-family="Arial, sans-serif">+12% this month</text>
  
  <rect x="420" y="100" width="160" height="100" rx="10" fill="#2d3748" stroke="rgba(255,255,255,0.1)"/>
  <text x="430" y="125" fill="#a0aec0" font-size="12" font-family="Arial, sans-serif">Lessons Today</text>
  <text x="430" y="150" fill="#ffffff" font-size="28" font-weight="bold" font-family="Arial, sans-serif">24</text>
  <text x="430" y="175" fill="#4299e1" font-size="12" font-family="Arial, sans-serif">8 completed</text>
  
  <rect x="600" y="100" width="160" height="100" rx="10" fill="#2d3748" stroke="rgba(255,255,255,0.1)"/>
  <text x="610" y="125" fill="#a0aec0" font-size="12" font-family="Arial, sans-serif">Revenue</text>
  <text x="610" y="150" fill="#ffffff" font-size="28" font-weight="bold" font-family="Arial, sans-serif">$8,420</text>
  <text x="610" y="175" fill="#48bb78" font-size="12" font-family="Arial, sans-serif">+23% this month</text>
  
  <!-- Recent lessons table -->
  <rect x="240" y="220" width="520" height="240" rx="10" fill="#2d3748" stroke="rgba(255,255,255,0.1)"/>
  <text x="250" y="245" fill="#ffffff" font-size="16" font-weight="bold" font-family="Arial, sans-serif">Recent Lessons</text>
  
  <!-- Table header -->
  <rect x="250" y="260" width="500" height="30" fill="rgba(255,255,255,0.05)"/>
  <text x="260" y="278" fill="#a0aec0" font-size="12" font-weight="bold" font-family="Arial, sans-serif">Student</text>
  <text x="400" y="278" fill="#a0aec0" font-size="12" font-weight="bold" font-family="Arial, sans-serif">Date</text>
  <text x="520" y="278" fill="#a0aec0" font-size="12" font-weight="bold" font-family="Arial, sans-serif">Status</text>
  <text x="650" y="278" fill="#a0aec0" font-size="12" font-weight="bold" font-family="Arial, sans-serif">Instructor</text>
  
  <!-- Table rows -->
  <text x="260" y="308" fill="#ffffff" font-size="12" font-family="Arial, sans-serif">Sarah Johnson</text>
  <text x="400" y="308" fill="#a0aec0" font-size="12" font-family="Arial, sans-serif">Today 2:00 PM</text>
  <rect x="520" y="300" width="60" height="20" rx="10" fill="#48bb78"/>
  <text x="530" y="312" fill="#ffffff" font-size="10" font-family="Arial, sans-serif">Completed</text>
  <text x="650" y="308" fill="#a0aec0" font-size="12" font-family="Arial, sans-serif">John Smith</text>
  
  <text x="260" y="338" fill="#ffffff" font-size="12" font-family="Arial, sans-serif">Mike Chen</text>
  <text x="400" y="338" fill="#a0aec0" font-size="12" font-family="Arial, sans-serif">Today 4:30 PM</text>
  <rect x="520" y="330" width="60" height="20" rx="10" fill="#4299e1"/>
  <text x="535" y="342" fill="#ffffff" font-size="10" font-family="Arial, sans-serif">Scheduled</text>
  <text x="650" y="338" fill="#a0aec0" font-size="12" font-family="Arial, sans-serif">Jane Doe</text>
  
  <text x="260" y="368" fill="#ffffff" font-size="12" font-family="Arial, sans-serif">Emma Wilson</text>
  <text x="400" y="368" fill="#a0aec0" font-size="12" font-family="Arial, sans-serif">Tomorrow 10:00 AM</text>
  <rect x="520" y="360" width="60" height="20" rx="10" fill="#ed8936"/>
  <text x="535" y="372" fill="#ffffff" font-size="10" font-family="Arial, sans-serif">Pending</text>
  <text x="650" y="368" fill="#a0aec0" font-size="12" font-family="Arial, sans-serif">John Smith</text>
  
  <text x="260" y="398" fill="#ffffff" font-size="12" font-family="Arial, sans-serif">David Brown</text>
  <text x="400" y="398" fill="#a0aec0" font-size="12" font-family="Arial, sans-serif">Tomorrow 2:15 PM</text>
  <rect x="520" y="390" width="60" height="20" rx="10" fill="#4299e1"/>
  <text x="535" y="402" fill="#ffffff" font-size="10" font-family="Arial, sans-serif">Scheduled</text>
  <text x="650" y="398" fill="#a0aec0" font-size="12" font-family="Arial, sans-serif">Lisa Garcia</text>
  
  <!-- Progress bars for visual appeal -->
  <rect x="240" y="480" width="100" height="4" rx="2" fill="rgba(255,255,255,0.1)"/>
  <rect x="240" y="480" width="75" height="4" rx="2" fill="#48bb78"/>
  
  <rect x="360" y="480" width="100" height="4" rx="2" fill="rgba(255,255,255,0.1)"/>
  <rect x="360" y="480" width="60" height="4" rx="2" fill="#4299e1"/>
  
  <rect x="480" y="480" width="100" height="4" rx="2" fill="rgba(255,255,255,0.1)"/>
  <rect x="480" y="480" width="85" height="4" rx="2" fill="#ed8936"/>
</svg>